<?xml version="1.0" encoding="utf-8"?>
<!-- Generator: Adobe Illustrator 19.0.0, SVG Export Plug-In . SVG Version: 6.00 Build 0)  -->
<svg version="1.1" id="Слой_1" xmlns="http://www.w3.org/2000/svg" xmlns:xlink="http://www.w3.org/1999/xlink" x="0px" y="0px"
	 viewBox="0 0 130.3 45.1" style="enable-background:new 0 0 130.3 45.1;" xml:space="preserve">
<g>
	<path d="M15.6,13.7c0-1.5-0.4-2.1-1.6-2.1h-1.7v4.3h1.6C15.1,15.8,15.6,15.1,15.6,13.7"/>
	<path d="M57.8,30.4c-0.8,0-1.3,1-1.3,3c0,2,0.5,3,1.3,3c0.8,0,1.3-1,1.3-3C59.1,31.4,58.6,30.4,57.8,30.4"/>
	<path d="M92.1,31.8c0-0.8-0.4-1.3-1.1-1.3h-1v2.6H91C91.7,33.1,92.1,32.6,92.1,31.8"/>
	<path d="M18.8,30.5h-0.9v2.7h0.9c0.8,0,1.2-0.5,1.2-1.4C19.9,31,19.5,30.5,18.8,30.5"/>
	<path d="M86.2,30.7c-0.1,0.5-0.2,1.3-0.4,1.9l-0.4,1.7H87l-0.4-1.8C86.5,32,86.3,31.3,86.2,30.7"/>
	<path d="M22.9,30.7c-0.1,0.5-0.2,1.3-0.4,1.9l-0.4,1.7h1.5l-0.4-1.8C23.1,32,23,31.3,22.9,30.7"/>
	<path d="M71.9,18.5c-0.4-2.3-0.8-4.2-1-5.8c-0.2,1.6-0.5,3.5-0.9,5.8l-0.1,0.6H72L71.9,18.5z"/>
	<path d="M122.1,25.8h-4.2v-7.3h-3.5v7.3h-4.2V8.2h4.2v6.5h3.5V8.2h4.2V25.8z M120.4,37c-0.9,0-1.4-0.5-1.7-1.4l0.6-0.3
		c0.3,0.7,0.6,1,1.1,1c0.6,0,1-0.4,1-1c0-0.7-0.3-1.2-1.2-1.9c-1-0.7-1.4-1.2-1.4-2.1c0-0.9,0.6-1.6,1.6-1.6c0.9,0,1.3,0.5,1.6,1.2
		l-0.6,0.3c-0.3-0.6-0.6-0.9-1.1-0.9c-0.6,0-0.8,0.5-0.8,0.9c0,0.6,0.2,1,1.1,1.6c1.1,0.7,1.5,1.4,1.5,2.4
		C122.1,36.3,121.5,37,120.4,37 M118.1,30.5h-1.4v6.4H116v-6.4h-1.4v-0.6h3.5V30.5z M113.2,36.9l-1.1-3.2c-0.1,0-0.8,0-1,0v3.2h-0.7
		v-7h1.7c1,0,1.8,0.6,1.8,1.9c0,0.9-0.4,1.5-1.1,1.8l1.1,3.4H113.2z M108.6,36.9l-0.4-1.8h-1.8l-0.4,1.8h-0.7l1.7-7h0.7l1.7,7H108.6
		z M101.1,26c-4.1,0-6.2-3.1-6.2-9c0-6.1,2.3-9.1,6.2-9.1c3.7,0,5,2.1,5.6,5.5l-4.1,1.1c-0.3-2-0.6-3-1.6-3c-1.4,0-1.9,1.4-1.9,5.4
		c0,4,0.5,5.5,1.9,5.5c1,0,1.3-0.7,1.8-2.9l3.9,1.3C106.1,24.1,104.6,26,101.1,26 M102.1,36.9h-0.7v-3.4h-2.3v3.4h-0.7v-7h0.7v3h2.3
		v-3h0.7V36.9z M95.6,37c-1.3,0-1.9-1.4-1.9-3.6c0-2.2,0.7-3.6,1.9-3.6c0.9,0,1.4,0.6,1.7,1.5l-0.6,0.3c-0.3-0.9-0.6-1.1-1.1-1.1
		c-0.8,0-1.2,1.1-1.2,3c0,2,0.5,3,1.3,3c0.5,0,0.8-0.3,1.1-1.1l0.6,0.3C97.1,36.4,96.6,37,95.6,37 M92.1,36.9L91,33.7
		c-0.1,0-0.8,0-1,0v3.2h-0.7v-7H91c1,0,1.8,0.6,1.8,1.9c0,0.9-0.4,1.5-1.1,1.8l1.1,3.4H92.1z M87.6,36.9L87.2,35h-1.8l-0.4,1.8h-0.7
		l1.7-7h0.7l1.7,7H87.6z M83.4,36.9h-3.1v-7h3v0.7H81v2.3h1.4v0.7H81v2.8h2.4V36.9z M77.4,37c-0.9,0-1.4-0.5-1.7-1.4l0.6-0.3
		c0.3,0.7,0.6,1,1.1,1c0.6,0,1-0.4,1-1c0-0.7-0.3-1.2-1.2-1.9c-1-0.7-1.4-1.2-1.4-2.1c0-0.9,0.6-1.6,1.6-1.6c0.9,0,1.3,0.5,1.6,1.2
		l-0.6,0.3c-0.3-0.6-0.6-0.9-1.1-0.9c-0.6,0-0.8,0.5-0.8,0.9c0,0.6,0.2,1,1.1,1.6c1.1,0.7,1.5,1.4,1.5,2.4
		C79.1,36.3,78.5,37,77.4,37 M74.9,36.9h-3.1v-7h3v0.7h-2.3v2.3H74v0.7h-1.4v2.8h2.4V36.9z M69.9,36.9l-1.1-3.2c-0.1,0-0.8,0-1,0
		v3.2h-0.7v-7h1.7c1,0,1.8,0.6,1.8,1.9c0,0.9-0.4,1.5-1.1,1.8l1.1,3.4H69.9z M68.8,8.2h4.3l4.5,17.6h-4.3l-0.7-3.3h-3.5l-0.6,3.3
		h-4.3L68.8,8.2z M64,30.5h-2.3v2.4h1.5v0.7h-1.5v3.3H61v-7h3V30.5z M57.8,37c-1.3,0-2-1.3-2-3.6c0-2.3,0.7-3.6,2-3.6
		c1.3,0,2,1.3,2,3.6C59.8,35.6,59.2,37,57.8,37 M52.9,30.5h-1.4v6.4h-0.7v-6.4h-1.4v-0.6h3.5V30.5z M48.4,36.9h-0.6L46.1,33
		c-0.3-0.6-0.6-1.3-0.7-1.7c0,0.3,0,0.9,0,1.4v4.2h-0.7v-7h0.7l1.6,3.7c0.3,0.6,0.6,1.3,0.7,1.7c0-0.3,0-0.9,0-1.4v-4h0.7V36.9z
		 M43.6,36.9h-3.1v-7h3v0.7h-2.3v2.3h1.4v0.7h-1.4v2.8h2.4V36.9z M39.1,36.9h-0.7v-4.2c0-0.4,0-0.9,0-1.2c-0.1,0.4-0.2,0.9-0.4,1.4
		l-1.2,4.2l-1.2-4.2c-0.2-0.5-0.3-1-0.3-1.4c0,0.3,0,0.8,0,1.2v4.2h-0.7v-7h0.8l1.1,3.7c0.2,0.6,0.3,1.2,0.4,1.7
		c0.1-0.5,0.2-1.1,0.4-1.7l1.1-3.7h0.8V36.9z M33.7,25.8H23.3V8.2h10.3v3.6h-6.1v3h4v3.6h-4v3.8h6.3V25.8z M33.7,30.5h-1.4v6.4h-0.7
		v-6.4h-1.4v-0.6h3.5V30.5z M28.7,36.9l-1.1-3.2c-0.1,0-0.8,0-1,0v3.2H26v-7h1.7c1,0,1.8,0.6,1.8,1.9c0,0.9-0.4,1.5-1.1,1.8l1.1,3.4
		H28.7z M24.2,36.9L23.8,35H22l-0.4,1.8h-0.7l1.7-7h0.7l1.7,7H24.2z M18.7,33.8h-0.8v3h-0.7v-7h1.6c1,0,1.8,0.6,1.8,1.9
		C20.6,33.2,19.8,33.8,18.7,33.8 M16.1,36.9H13v-7h3v0.7h-2.3v2.3h1.4v0.7h-1.4v2.8h2.4V36.9z M12.3,25.8H8.2V8.2h6.1
		c3.2,0,5.4,1.4,5.4,5.3c0,2.3-0.9,3.8-2.3,4.6l2.6,7.6h-4.5L13.5,19h-1.1V25.8z M9.5,36.9H8.2v-7h1.4c1.5,0,2.2,1.2,2.2,3.5
		C11.8,35.8,10.9,36.9,9.5,36.9 M41.5,18.7c-3.5-1.5-4.8-2.9-4.8-5.6c0-2.9,2.1-5.1,5.4-5.1c2.7,0,4.1,1,5.5,2.8l-2.9,2.6
		c-1.2-1.4-1.6-1.9-2.7-1.9c-0.8,0-1.3,0.6-1.3,1.3c0,0.9,0.5,1.5,2.2,2.2c3.5,1.6,4.8,3,4.8,5.9c0,3.3-2.4,5.2-5.7,5.2
		c-2.7,0-4.3-1.1-5.8-3.1l2.9-2.6c1.2,1.4,2.1,2.1,3,2.1c0.9,0,1.5-0.5,1.5-1.4C43.8,20.2,43.5,19.5,41.5,18.7 M51.2,8.2h10.3v3.6
		h-6.1v3h4v3.6h-4v3.8h6.3v3.6H51.2V8.2z M80.6,8.2h6.1c3.2,0,5.4,1.4,5.4,5.3c0,2.3-0.9,3.8-2.3,4.6l2.6,7.6h-4.5L85.9,19h-1.1v6.7
		h-4.1V8.2z M4.1,4.1L0,45.1L126.2,41l4.1-41L4.1,4.1z"/>
	<path d="M28.8,31.8c0-0.8-0.4-1.3-1.1-1.3h-1v2.6h0.9C28.4,33.1,28.8,32.6,28.8,31.8"/>
	<path d="M70,31.8c0-0.8-0.4-1.3-1.1-1.3h-1v2.6h0.9C69.6,33.1,70,32.6,70,31.8"/>
	<path d="M113.2,31.8c0-0.8-0.4-1.3-1.1-1.3h-1v2.6h0.9C112.8,33.1,113.2,32.6,113.2,31.8"/>
	<path d="M107.3,30.7c-0.1,0.5-0.2,1.3-0.4,1.9l-0.4,1.7h1.5l-0.4-1.8C107.5,32,107.4,31.3,107.3,30.7"/>
	<path d="M9.5,30.5H8.9v5.7h0.6c1,0,1.6-0.8,1.6-2.9C11.1,31.4,10.6,30.5,9.5,30.5"/>
	<path d="M88,13.7c0-1.5-0.4-2.1-1.6-2.1h-1.7v4.3h1.6C87.5,15.8,88,15.1,88,13.7"/>
</g>
</svg>
